# xmcd
#
# Track frame offsets:
#	150
#	25548
#	45572
#	66954
#	87865
#	111237
#	129774
#	146939
#	167504
#	185271
#	208759
#
# Disc length: 3148 seconds
#
# Revision: 0
# Processed by: cddbd v1.5.1PL2 Copyright (c) Steve Scherf et al.
# Submitted via: audiograbber 1.83.01
#
DISCID=910c4a0b
DTITLE=Sara Evans - Born To Fly
DYEAR=2000
DGENRE=Country
TTITLE0=Born To Fly
TTITLE1=Saints And Angels
TTITLE2=I Could Not Ask For More
TTITLE3=I Keep Looking
TTITLE4=I Learned That From You
TTITLE5=Let's Dance
TTITLE6=Why Should I Care
TTITLE7=Four-Thirty
TTITLE8=Show Me The Way To Your Heart
TTITLE9=You Don't
TTITLE10=Every Little Kiss
EXTD=(c)2000 RCA 07863-67964-2\n
EXTT0=
EXTT1=
EXTT2=
EXTT3=
EXTT4=
EXTT5=
EXTT6=
EXTT7=
EXTT8=
EXTT9=
EXTT10=
PLAYORDER=
